<?xml version="1.0" standalone="no"?>
<!DOCTYPE svg PUBLIC "-//W3C//DTD SVG 20010904//EN"
 "http://www.w3.org/TR/2001/REC-SVG-20010904/DTD/svg10.dtd">
<svg version="1.0" xmlns="http://www.w3.org/2000/svg"
 width="140.000000pt" height="118.000000pt" viewBox="0 0 140.000000 118.000000"
 preserveAspectRatio="xMidYMid meet">

<g transform="translate(0.000000,118.000000) scale(0.100000,-0.100000)"
fill="#000000" stroke="none">
<path d="M750 976 c-115 -44 -313 -186 -376 -270 -71 -93 -152 -281 -131 -302
14 -14 692 461 756 530 20 21 22 29 12 39 -18 18 -216 20 -261 3z"/>
<path d="M1054 848 c-28 -31 -227 -189 -479 -379 -272 -206 -305 -235 -285
-248 23 -15 94 -3 221 39 252 83 365 168 483 364 32 53 84 169 101 224 9 29
-15 30 -41 0z"/>
</g>
</svg>
